<?xml version="1.0" encoding="UTF-8" standalone="no"?>
<svg
   viewBox="0 0 512	512"
   version="1.1"
   id="svg4"
   xmlns:xlink="http://www.w3.org/1999/xlink"
   xmlns="http://www.w3.org/2000/svg"
   xmlns:svg="http://www.w3.org/2000/svg">
  <defs
     id="defs8">
    <linearGradient
       id="linearGradient10911">
      <stop
         style="stop-color:#000000;stop-opacity:1;"
         offset="0"
         id="stop10909" />
    </linearGradient>
    <linearGradient
       id="linearGradient6483">
      <stop
         style="stop-color:#aa0000;stop-opacity:1;"
         offset="0"
         id="stop6481" />
    </linearGradient>
    <linearGradient
       xlink:href="#linearGradient6483"
       id="linearGradient6485"
       x1="8.4428473"
       y1="260.30991"
       x2="502.85211"
       y2="260.30991"
       gradientUnits="userSpaceOnUse"
       gradientTransform="matrix(0.81985753,0,0,0.81985753,47.569275,46.754387)" />
  </defs>
  <!--!Font Awesome Free 6.5.2 by @fontawesome - https://fontawesome.com License - https://fontawesome.com/license/free Copyright 2024 Fonticons, Inc.-->
  <path
     d="M 235.23399,434.30582 92.17564,293.08945 c -3.325096,-3.26462 -6.491855,-6.7804 -9.421107,-10.37986 h 68.877007 c 17.89218,0 34.04265,-11.38438 40.93037,-28.87946 l 8.31274,-21.09456 39.0303,91.66088 c 3.00842,7.11524 9.57944,11.71921 16.94216,11.80291 7.36271,0.0837 14.09208,-4.18542 17.41718,-11.13323 l 33.56764,-71.06859 1.34587,2.8461 c 7.52105,15.90464 22.87984,25.94966 39.66367,25.94966 h 82.73158 c -2.92926,3.59947 -6.09602,7.11523 -9.42111,10.37987 L 279.09359,434.30582 c -5.93767,5.85961 -13.77539,9.12422 -21.92981,9.12422 -8.1544,0 -15.99213,-3.26461 -21.92979,-9.12422 z M 453.26534,242.52948 H 348.76229 c -2.37507,0 -4.59179,-1.42304 -5.70016,-3.68319 l -18.3672,-38.75707 c -3.24594,-6.78041 -9.81696,-11.13323 -17.02134,-11.13323 -7.20437,0 -13.77539,4.26911 -17.02131,11.13323 l -32.77597,69.3107 -40.37618,-95.34406 c -3.08758,-7.28266 -10.05445,-11.97033 -17.57551,-11.80291 -7.52105,0.16742 -14.32958,4.93881 -17.25884,12.38885 l -25.17575,63.86965 c -0.95,2.51128 -3.32507,4.10174 -5.85849,4.10174 -29.13452,1.92934 -86.82089,0.28707 -90.303723,0.35878 -4.512631,-13.39337 -6.83661,-27.06182 -6.83661,-41.54341 v -4.8551 c 0,-58.51229 39.980333,-108.402604 94.527753,-118.02909 36.10106,-6.361851 72.83546,6.110727 98.64455,33.39972 l 9.50027,10.04503 9.50029,-10.04503 c 25.80908,-27.288993 62.5435,-39.761571 98.64455,-33.39972 54.54742,9.626486 94.52775,59.5168 94.52775,118.02909 v 4.8551 c 0,14.14675 -2.21673,28.04236 -6.57103,41.10092 z"
     id="path2"
     style="opacity:1;fill:url(#linearGradient6485);fill-opacity:1;fill-rule:nonzero;stroke:none;stroke-width:0;stroke-linecap:round;stroke-dasharray:none;stroke-opacity:0.994236" />
</svg>
