<?xml version="1.0" encoding="UTF-8" standalone="no"?>
<svg
   data-name="Layer 1"
   viewBox="0 0 100 100"
   x="0px"
   y="0px"
   version="1.1"
   id="svg154"
   width="100"
   height="100"
   xmlns:xlink="http://www.w3.org/1999/xlink"
   xmlns="http://www.w3.org/2000/svg"
   xmlns:svg="http://www.w3.org/2000/svg"
   xmlns:rdf="http://www.w3.org/1999/02/22-rdf-syntax-ns#"
   xmlns:cc="http://creativecommons.org/ns#"
   xmlns:dc="http://purl.org/dc/elements/1.1/">
  <defs
     id="defs158">
    <color-profile
       name="Adobe-RGB--1998-"
       xlink:href="file:///C:/WINDOWS/system32/spool/drivers/color/AdobeRGB1998.icc"
       id="color-profile3093" />
    <linearGradient
       id="linearGradient894">
      <stop
         style="stop-color:#000000;stop-opacity:1;"
         offset="0"
         id="stop892" />
    </linearGradient>
  </defs>
  <title
     id="title146">no-active-defense</title>
  <g
     id="g4469"
     transform="matrix(0.86939801,0,0,1.1673768,5.9411363,-7.3195676)"
     style="fill:#dfdfdf;fill-opacity:1;stroke-width:0.999573;stroke-dasharray:none">
    <path
       d="m 29.58,71.57 a 0.7,0.7 0 0 1 -0.71,0.7 H 24 a 0.71,0.71 0 0 1 0,-1.41 h 4.84 a 0.71,0.71 0 0 1 0.74,0.71 z"
       id="path336"
       style="fill:#dfdfdf;fill-opacity:1;stroke-width:0.999573;stroke-dasharray:none" />
    <path
       d="m 33.7,63.26 a 0.71,0.71 0 1 1 0,1.42 H 24 a 0.71,0.71 0 0 1 0,-1.42 z"
       id="path334"
       style="fill:#dfdfdf;fill-opacity:1;stroke-width:0.999573;stroke-dasharray:none" />
    <path
       d="M 39.28,57.09 H 26.87 a 0.71,0.71 0 1 1 0,-1.42 h 12.41 a 0.71,0.71 0 1 1 0,1.42 z"
       id="path332"
       style="fill:#dfdfdf;fill-opacity:1;stroke-width:0.999573;stroke-dasharray:none" />
    <path
       d="m 23.39,56.38 a 0.71,0.71 0 0 1 -0.71,0.71 H 19 a 0.71,0.71 0 0 1 0,-1.42 h 3.65 a 0.71,0.71 0 0 1 0.74,0.71 z"
       id="path330"
       style="fill:#dfdfdf;fill-opacity:1;stroke-width:0.999573;stroke-dasharray:none" />
    <path
       d="M 45,49.49 H 14.7 a 0.71,0.71 0 1 1 0,-1.41 H 45 a 0.71,0.71 0 1 1 0,1.41 z"
       id="path328"
       style="fill:#dfdfdf;fill-opacity:1;stroke-width:0.999573;stroke-dasharray:none" />
    <path
       d="m 19.41,41.19 a 0.71,0.71 0 0 1 0.71,-0.71 h 11.33 a 0.71,0.71 0 0 1 0,1.42 H 20.12 a 0.71,0.71 0 0 1 -0.71,-0.71 z"
       id="path326"
       style="fill:#dfdfdf;fill-opacity:1;stroke-width:0.999573;stroke-dasharray:none" />
    <path
       d="m 25.16,33.6 a 0.71,0.71 0 0 1 0.71,-0.71 H 43 a 0.71,0.71 0 1 1 0,1.42 H 25.87 A 0.71,0.71 0 0 1 25.16,33.6 Z"
       id="path324"
       style="fill:#dfdfdf;fill-opacity:1;stroke-width:0.999573;stroke-dasharray:none" />
    <path
       d="m 42.33,26 a 0.7,0.7 0 0 1 0.7,-0.71 H 55.7 a 0.71,0.71 0 1 1 0,1.42 H 43 A 0.7,0.7 0 0 1 42.33,26 Z"
       id="path322"
       style="fill:#dfdfdf;fill-opacity:1;stroke-width:0.999573;stroke-dasharray:none" />
    <path
       d="m 35.16,26 a 0.71,0.71 0 0 1 0.71,-0.71 h 4.41 a 0.71,0.71 0 0 1 0,1.42 H 35.87 A 0.71,0.71 0 0 1 35.16,26 Z"
       id="path320"
       style="fill:#dfdfdf;fill-opacity:1;stroke-width:0.999573;stroke-dasharray:none" />
    <path
       d="m 85.87,47.52 c -0.169592,-0.963922 -0.730689,-1.814617 -1.55,-2.35 l -16,-10.5 c -0.08183,-0.05222 -0.173894,-0.08632 -0.27,-0.1 L 67,34.39 C 71.809007,31.766957 70.586273,24.54664 65.18344,23.651313 59.780606,22.755986 56.294173,29.195927 60,33.23 L 58,32.9 H 57.77 L 38.6,36.28 c -0.906097,0.155568 -1.710573,0.671443 -2.23,1.43 -0.527032,0.756891 -0.732046,1.692042 -0.57,2.6 0.348925,1.887206 2.605451,2.469859 4.491942,2.117087 l 12.74,-2.42 L 49.46,50.25 31.6,70.65 c -1.974254,2.236107 -0.382922,5.755399 2.6,5.75 1.018795,-0.0016 1.986329,-0.447028 2.65,-1.22 l 16.41,-19.3 8.40066,2.129359 -4.33,5.12 C 54.410138,66.796603 58.513441,71.073291 61.81,67.74 l 9.44,-10.07 c 1.699935,-1.811976 0.730998,-4.786785 -1.71,-5.25 l -5.18,-1 4.211942,-8.902913 12.32,7.93 C 83.495611,52.150261 86.430317,50.570382 85.87,47.51 Z"
       id="path148"
       style="opacity:1;fill:#dfdfdf;fill-opacity:1;stroke:none;stroke-width:0.999573;stroke-dasharray:none;stroke-opacity:1" />
  </g>
  <metadata
     id="metadata3633">
    <rdf:RDF>
      <cc:Work
         rdf:about="">
        <dc:title>no-active-defense</dc:title>
      </cc:Work>
    </rdf:RDF>
  </metadata>
  <path
     style="opacity:1;fill:#ffffff;fill-opacity:1;stroke:none;stroke-width:1.18896;stroke-linejoin:round;stroke-opacity:1"
     d="M 15,14.75 C 85.75,76.875 85.75,76.875 85.75,76.875"
     id="path4525" />
  <g
     id="g13495"
     transform="matrix(0.78609579,0,0,0.78609579,9.7058562,11.580856)"
     style="stroke:#ffffff;stroke-width:7.12016;stroke-dasharray:none;stroke-opacity:1">
    <path
       style="opacity:1;fill:none;fill-opacity:1;stroke:#ffffff;stroke-width:7.12016;stroke-linejoin:round;stroke-dasharray:none;stroke-opacity:1"
       id="path5360"
       d="M 98.400528,50.051773 A 48.356335,48.363914 0 0 1 50.051427,98.415687 48.356335,48.363914 0 0 1 1.6878607,50.066244 48.356335,48.363914 0 0 1 50.022491,1.6878635 48.356335,48.363914 0 0 1 98.400519,50.022832" />
    <path
       style="opacity:1;fill:none;fill-opacity:1;stroke:#ffffff;stroke-width:7.12016;stroke-linejoin:round;stroke-dasharray:none;stroke-opacity:1"
       d="M 19.698038,13.00565 85.654144,82.936444"
       id="path6352" />
  </g>
</svg>
