<?xml version="1.0" encoding="UTF-8" standalone="no"?>
<svg
   data-name="Layer 1"
   viewBox="0 0 100 100"
   x="0px"
   y="0px"
   version="1.1"
   id="svg154"
   sodipodi:docname="total-defense.svg"
   width="100"
   height="100"
   inkscape:version="1.2.2 (b0a8486541, 2022-12-01)"
   xmlns:inkscape="http://www.inkscape.org/namespaces/inkscape"
   xmlns:sodipodi="http://sodipodi.sourceforge.net/DTD/sodipodi-0.dtd"
   xmlns:xlink="http://www.w3.org/1999/xlink"
   xmlns="http://www.w3.org/2000/svg"
   xmlns:svg="http://www.w3.org/2000/svg"
   xmlns:rdf="http://www.w3.org/1999/02/22-rdf-syntax-ns#"
   xmlns:cc="http://creativecommons.org/ns#"
   xmlns:dc="http://purl.org/dc/elements/1.1/">
  <defs
     id="defs158">
    <color-profile
       name="Adobe-RGB--1998-"
       xlink:href="file:///C:/WINDOWS/system32/spool/drivers/color/AdobeRGB1998.icc"
       id="color-profile3004" />
    <linearGradient
       id="linearGradient894"
       inkscape:swatch="solid">
      <stop
         style="stop-color:#000000;stop-opacity:1;"
         offset="0"
         id="stop892" />
    </linearGradient>
  </defs>
  <sodipodi:namedview
     id="namedview156"
     pagecolor="#4b4b4b"
     bordercolor="#000000"
     borderopacity="0.25"
     inkscape:showpageshadow="2"
     inkscape:pageopacity="0"
     inkscape:pagecheckerboard="0"
     inkscape:deskcolor="#d1d1d1"
     showgrid="false"
     inkscape:zoom="8"
     inkscape:cx="53.1875"
     inkscape:cy="71.5625"
     inkscape:window-width="2560"
     inkscape:window-height="1411"
     inkscape:window-x="-9"
     inkscape:window-y="-9"
     inkscape:window-maximized="1"
     inkscape:current-layer="svg154" />
  <title
     id="title146">total-defense</title>
  <g
     id="g4469"
     transform="matrix(0.79304475,0,0,1.0648541,13.127896,-2.7784163)"
     style="fill:#ffffff;fill-opacity:1;stroke-width:0.999573;stroke-dasharray:none">
    <path
       d="m 29.58,71.57 a 0.7,0.7 0 0 1 -0.71,0.7 H 24 a 0.71,0.71 0 0 1 0,-1.41 h 4.84 a 0.71,0.71 0 0 1 0.74,0.71 z"
       id="path336"
       style="fill:#ffffff;fill-opacity:1;stroke-width:0.999573;stroke-dasharray:none" />
    <path
       d="m 33.7,63.26 a 0.71,0.71 0 1 1 0,1.42 H 24 a 0.71,0.71 0 0 1 0,-1.42 z"
       id="path334"
       style="fill:#ffffff;fill-opacity:1;stroke-width:0.999573;stroke-dasharray:none" />
    <path
       d="M 39.28,57.09 H 26.87 a 0.71,0.71 0 1 1 0,-1.42 h 12.41 a 0.71,0.71 0 1 1 0,1.42 z"
       id="path332"
       style="fill:#ffffff;fill-opacity:1;stroke-width:0.999573;stroke-dasharray:none" />
    <path
       d="m 23.39,56.38 a 0.71,0.71 0 0 1 -0.71,0.71 H 19 a 0.71,0.71 0 0 1 0,-1.42 h 3.65 a 0.71,0.71 0 0 1 0.74,0.71 z"
       id="path330"
       style="fill:#ffffff;fill-opacity:1;stroke-width:0.999573;stroke-dasharray:none" />
    <path
       d="M 45,49.49 H 14.7 a 0.71,0.71 0 1 1 0,-1.41 H 45 a 0.71,0.71 0 1 1 0,1.41 z"
       id="path328"
       style="fill:#ffffff;fill-opacity:1;stroke-width:0.999573;stroke-dasharray:none" />
    <path
       d="m 19.41,41.19 a 0.71,0.71 0 0 1 0.71,-0.71 h 11.33 a 0.71,0.71 0 0 1 0,1.42 H 20.12 a 0.71,0.71 0 0 1 -0.71,-0.71 z"
       id="path326"
       style="fill:#ffffff;fill-opacity:1;stroke-width:0.999573;stroke-dasharray:none" />
    <path
       d="m 25.16,33.6 a 0.71,0.71 0 0 1 0.71,-0.71 H 43 a 0.71,0.71 0 1 1 0,1.42 H 25.87 A 0.71,0.71 0 0 1 25.16,33.6 Z"
       id="path324"
       style="fill:#ffffff;fill-opacity:1;stroke-width:0.999573;stroke-dasharray:none" />
    <path
       d="m 42.33,26 a 0.7,0.7 0 0 1 0.7,-0.71 H 55.7 a 0.71,0.71 0 1 1 0,1.42 H 43 A 0.7,0.7 0 0 1 42.33,26 Z"
       id="path322"
       style="fill:#ffffff;fill-opacity:1;stroke-width:0.999573;stroke-dasharray:none" />
    <path
       d="m 35.16,26 a 0.71,0.71 0 0 1 0.71,-0.71 h 4.41 a 0.71,0.71 0 0 1 0,1.42 H 35.87 A 0.71,0.71 0 0 1 35.16,26 Z"
       id="path320"
       style="fill:#ffffff;fill-opacity:1;stroke-width:0.999573;stroke-dasharray:none" />
    <path
       d="m 85.87,47.52 c -0.169592,-0.963922 -0.730689,-1.814617 -1.55,-2.35 l -16,-10.5 c -0.08183,-0.05222 -0.173894,-0.08632 -0.27,-0.1 L 67,34.39 C 71.809007,31.766957 70.586273,24.54664 65.18344,23.651313 59.780606,22.755986 56.294173,29.195927 60,33.23 L 58,32.9 H 57.77 L 38.6,36.28 c -0.906097,0.155568 -1.710573,0.671443 -2.23,1.43 -0.527032,0.756891 -0.732046,1.692042 -0.57,2.6 0.348925,1.887206 2.605451,2.469859 4.491942,2.117087 l 12.74,-2.42 L 49.46,50.25 31.6,70.65 c -1.974254,2.236107 -0.382922,5.755399 2.6,5.75 1.018795,-0.0016 1.986329,-0.447028 2.65,-1.22 l 16.41,-19.3 8.40066,2.129359 -4.33,5.12 C 54.410138,66.796603 58.513441,71.073291 61.81,67.74 l 9.44,-10.07 c 1.699935,-1.811976 0.730998,-4.786785 -1.71,-5.25 l -5.18,-1 4.211942,-8.902913 12.32,7.93 C 83.495611,52.150261 86.430317,50.570382 85.87,47.51 Z"
       id="path148"
       style="opacity:1;fill:#ffffff;fill-opacity:1;stroke:none;stroke-width:0.999573;stroke-dasharray:none;stroke-opacity:1"
       sodipodi:nodetypes="cccccsccccccccccccccccccccccc" />
  </g>
  <metadata
     id="metadata3633">
    <rdf:RDF>
      <cc:Work
         rdf:about="">
        <dc:title>total-defense</dc:title>
      </cc:Work>
    </rdf:RDF>
  </metadata>
  <path
     style="opacity:1;fill:#ffffff;fill-opacity:1;stroke:none;stroke-width:1.18896;stroke-linejoin:round;stroke-opacity:1"
     d="M 17,12.75 C 87.75,74.875 87.75,74.875 87.75,74.875"
     id="path4525" />
  <path
     d="M 89.658083,28.782141 C 74.503585,21.940548 51.965198,9.862354 51.739748,9.701981 c -0.594068,-0.425141 -1.426751,-0.425141 -2.022464,0 -0.22545,0.160373 -22.7589,12.237055 -37.873903,19.08016 -0.57103,0.258715 -0.926483,0.792789 -0.919901,1.37679 0.0066,0.452375 1.059778,45.384174 39.068622,62.793771 0.232032,0.104394 0.483812,0.157347 0.733946,0.157347 0.250133,0 0.503559,-0.05296 0.733945,-0.157347 C 89.468837,75.543105 90.569755,30.612819 90.576338,30.160445 90.587857,29.57493 90.229112,29.039344 89.658083,28.782141 Z M 50.729339,89.901067 C 18.19053,74.47647 14.629412,37.421126 14.259148,31.056115 27.917779,24.669923 46.210471,15.98983 50.729339,12.806569 55.248206,15.98983 73.547481,24.669923 87.245607,31.056115 86.872051,37.427178 83.299414,74.46134 50.729339,89.901067 Z"
     id="path4"
     style="fill:#ffffff;fill-opacity:1;stroke:none;stroke-width:1.578;stroke-dasharray:none;stroke-opacity:1"
     sodipodi:nodetypes="ccccccscccccccc" />
</svg>
